<?xml version="1.0" encoding="UTF-8" standalone="no"?>
<svg
   xmlns:dc="http://purl.org/dc/elements/1.1/"
   xmlns:cc="http://creativecommons.org/ns#"
   xmlns:rdf="http://www.w3.org/1999/02/22-rdf-syntax-ns#"
   xmlns:svg="http://www.w3.org/2000/svg"
   xmlns="http://www.w3.org/2000/svg"
   xmlns:sodipodi="http://sodipodi.sourceforge.net/DTD/sodipodi-0.dtd"
   xmlns:inkscape="http://www.inkscape.org/namespaces/inkscape"
   width="400pt"
   height="292pt"
   viewBox="0 0 400 292"
   version="1.1"
   id="svg17"
   inkscape:version="0.91+devel r14506"
   sodipodi:docname="Fedora_Hat_gray.svg">

  <metadata
     id="metadata4534">
    <rdf:RDF>
      <cc:Work
         rdf:about="">
        <dc:format>image/svg+xml</dc:format>
        <dc:type
           rdf:resource="http://purl.org/dc/dcmitype/StillImage" />
        <dc:title>Fedora_Hat_gray</dc:title>
        <cc:license
           rdf:resource="http://creativecommons.org/publicdomain/zero/1.0/" />
        <dc:date>02/01/2015</dc:date>
        <dc:creator>
          <cc:Agent>
            <dc:title>edited by Paul Sherman</dc:title>
          </cc:Agent>
        </dc:creator>
        <dc:rights>
          <cc:Agent>
            <dc:title>pd</dc:title>
          </cc:Agent>
        </dc:rights>
        <dc:publisher>
          <cc:Agent>
            <dc:title>wpclipart</dc:title>
          </cc:Agent>
        </dc:publisher>
      </cc:Work>
      <cc:License
         rdf:about="http://creativecommons.org/publicdomain/zero/1.0/">
        <cc:permits
           rdf:resource="http://creativecommons.org/ns#Reproduction" />
        <cc:permits
           rdf:resource="http://creativecommons.org/ns#Distribution" />
        <cc:permits
           rdf:resource="http://creativecommons.org/ns#DerivativeWorks" />
      </cc:License>
    </rdf:RDF>
  </metadata>
  <defs
     id="defs21">
    <linearGradient
       id="linearGradient4221">
      <stop
         style="stop-color:#000000;stop-opacity:1;"
         offset="0"
         id="stop4217" />
      <stop
         style="stop-color:#003717;stop-opacity:1;"
         offset="1"
         id="stop4219" />
    </linearGradient>
  </defs>
  <sodipodi:namedview
     pagecolor="#ffffff"
     bordercolor="#666666"
     borderopacity="1"
     objecttolerance="10"
     gridtolerance="10"
     guidetolerance="10"
     inkscape:pageopacity="0"
     inkscape:pageshadow="2"
     inkscape:window-width="1628"
     inkscape:window-height="946"
     id="namedview19"
     showgrid="false"
     inkscape:zoom="1.5966046"
     inkscape:cx="169.19225"
     inkscape:cy="194.66667"
     inkscape:window-x="46"
     inkscape:window-y="0"
     inkscape:window-maximized="0"
     inkscape:current-layer="svg17" />
  <path
     inkscape:connector-curvature="0"
     id="path2"
     d="M 327.17979,56.136562 C 312.88292,43.718596 297.4376,44.706873 282.3204,41.913909 c 12.62501,8.539054 25.28126,17.042959 39.93751,22.976552 5.50391,-3.324222 4.82033,-5.996094 4.92188,-8.753899 z m 0,0"
     style="fill:#4e4e4e;fill-opacity:1;fill-rule:nonzero;stroke:#000000;stroke-width:1.08411467;stroke-linecap:butt;stroke-linejoin:miter;stroke-miterlimit:4;stroke-opacity:1" />
  <path
     inkscape:connector-curvature="0"
     id="path4"
     d="M 62.636761,123.08184 C 43.371128,119.5623 10.043002,103.85918 4.8359621,112.52715 18.687535,123.70293 33.74222,134.10527 52.402379,142.17167 c 4.640633,-3.65625 9.835948,-11.10156 10.234382,-19.08983 z m 0,0"
     style="fill:#383838;fill-opacity:1;fill-rule:nonzero;stroke:#ffffff;stroke-width:1.08411467;stroke-linecap:butt;stroke-linejoin:miter;stroke-miterlimit:4;stroke-opacity:1" />
  <path
     inkscape:connector-curvature="0"
     id="path6"
     d="m 331.83605,236.16772 c 44.65235,8.41405 87.14846,46.3906 50.29298,51.36715 -88.71487,1.91016 -224.99615,-81.46089 -329.586019,-145.53899 -1.785163,-9.6289 93.011739,68.76169 277.687569,101.66401 z m 0,0"
     style="fill:#313131;fill-opacity:1;fill-rule:nonzero;stroke:#000000;stroke-width:1.08411467;stroke-linecap:butt;stroke-linejoin:miter;stroke-miterlimit:4;stroke-opacity:1" />
  <path
     inkscape:connector-curvature="0"
     id="path8"
     d="m 52.6641,141.99979 c 20.507822,-38.7031 42.019542,-100.2851 62.53127,-116.109313 30.19141,-32.8085713 72.92189,-23.1484203 117.1719,-5.351561 33.88672,13.015623 56.53908,23.371081 80.79299,37.992172 10.32422,6.472648 11.41407,0.0082 12.78907,-3.214845 11.88281,4.08203 14.94531,148.570237 4.28125,188.343647 C 238.84384,226.64818 145.47272,196.03492 52.6641,141.99979 Z m 0,0"
     style="fill:#414141;fill-opacity:1;fill-rule:nonzero;stroke:#000000;stroke-width:1.08411467;stroke-linecap:butt;stroke-linejoin:miter;stroke-miterlimit:4;stroke-opacity:1" />
  <path
     inkscape:connector-curvature="0"
     id="path10"
     d="m 52.558594,140.87891 c 2.1875,-8.625 10.269531,-21.52735 11.46875,-20.92188 92.988286,52.35938 196.624996,87.46485 270.171876,99.94922 1.31641,7.3125 -0.0977,20.01563 -3.19531,24.625 C 305.82422,238.73828 181.74609,220.83984 52.558594,140.87891 Z m 0,0"
     style="fill:#cf0000;fill-opacity:1;fill-rule:nonzero;stroke:none" />
  <path
     inkscape:connector-curvature="0"
     id="path12"
     d="m 52.6641,140.8787 c 2.183598,-8.62499 10.261723,-21.52733 11.460945,-20.92187 92.957055,52.35936 196.554735,87.4648 270.074285,99.94918 1.3164,7.31249 -0.0977,20.01561 -3.19532,24.62499 C 305.83214,238.73802 181.80085,220.83959 52.6641,140.8787 Z m 0,0"
     style="fill:#000803;fill-opacity:1;fill-rule:nonzero;stroke:#000000;stroke-width:0.91517758;stroke-linecap:butt;stroke-linejoin:miter;stroke-miterlimit:4;stroke-opacity:1" />
  <path
     inkscape:connector-curvature="0"
     id="path14"
     d="M 232.61336,244.25365 C 165.94929,215.89429 111.211,191.47633 32.62113,167.63259 7.937528,158.32791 3.3867444,113.73418 6.367221,111.29278 80.914111,157.80447 155.18756,204.99976 232.61336,244.25365 Z m 0,0"
     style="fill:#2a2a2a;fill-opacity:1;fill-rule:nonzero;stroke:#000000;stroke-width:1.13634431;stroke-linecap:butt;stroke-linejoin:miter;stroke-miterlimit:4;stroke-opacity:1" />
</svg>
